<svg width="73" height="84" viewBox="0 0 73 84" fill="none" xmlns="http://www.w3.org/2000/svg">
<path d="M54.5825 58.912C54.5825 56.096 54.7105 53.536 54.9665 51.232L54.7105 50.848C52.3212 51.1893 49.7185 51.4453 46.9025 51.616C44.0865 51.7013 41.4838 51.7013 39.0945 51.616V34.976L72.5025 34.848V78.368C68.5772 80.16 64.0972 81.568 59.0625 82.592C54.1132 83.5307 47.7985 84 40.1185 84C29.8785 84 21.8572 82.6347 16.0545 79.904C10.2518 77.088 6.15583 72.608 3.7665 66.464C1.37717 60.2347 0.1825 51.9573 0.1825 41.632C0.1825 33.2693 1.12117 26.4 2.9985 21.024C4.96117 15.648 7.77717 11.5093 11.4465 8.60799C15.2012 5.62133 19.7665 3.57333 25.1425 2.464C30.5185 1.26933 36.6625 0.671997 43.5745 0.671997C47.6705 0.671997 51.7665 0.842664 55.8625 1.184C60.0438 1.52533 64.1825 2.16533 68.2785 3.104V20L67.8945 20.256C64.3105 19.4027 60.7265 18.8053 57.1425 18.464C53.6438 18.1227 50.1025 17.952 46.5185 17.952C41.3132 17.952 36.7478 18.5067 32.8225 19.616C28.9825 20.64 25.9958 22.816 23.8625 26.144C21.7292 29.472 20.6625 34.6347 20.6625 41.632C20.6625 48.544 21.2172 53.8347 22.3265 57.504C23.5212 61.088 25.6972 63.5627 28.8545 64.928C32.0972 66.208 36.7052 66.848 42.6785 66.848C43.4465 66.848 44.6412 66.848 46.2625 66.848C47.8838 66.7627 49.5052 66.6773 51.1265 66.592C52.7478 66.5067 53.8998 66.3787 54.5825 66.208V58.912Z" fill="#F1F6F9"/>
<path d="M54.9665 51.232L55.9604 51.3424L56.0006 50.9804L55.7986 50.6773L54.9665 51.232ZM54.7105 50.848L55.5426 50.2933L55.193 49.7689L54.5691 49.858L54.7105 50.848ZM46.9025 51.616L46.9328 52.6155L46.9479 52.6151L46.963 52.6142L46.9025 51.616ZM39.0945 51.616H38.0945V52.5809L39.0588 52.6154L39.0945 51.616ZM39.0945 34.976L39.0907 33.976L38.0945 33.9798V34.976H39.0945ZM72.5025 34.848H73.5025V33.8442L72.4987 33.848L72.5025 34.848ZM72.5025 78.368L72.9178 79.2777L73.5025 79.0108V78.368H72.5025ZM59.0625 82.592L59.2489 83.5746L59.2618 83.5719L59.0625 82.592ZM16.0545 79.904L15.6179 80.8037L15.6287 80.8088L16.0545 79.904ZM3.7665 66.464L2.83282 66.8221L2.8345 66.8264L3.7665 66.464ZM2.9985 21.024L2.05905 20.681L2.05441 20.6943L2.9985 21.024ZM11.4465 8.60799L12.0667 9.39241L12.069 9.3906L11.4465 8.60799ZM25.1425 2.464L25.3446 3.44336L25.352 3.44183L25.3594 3.44018L25.1425 2.464ZM55.8625 1.184L55.7795 2.18055L55.7811 2.18068L55.8625 1.184ZM68.2785 3.104H69.2785V2.30724L68.5019 2.12926L68.2785 3.104ZM68.2785 20L68.8332 20.8321L69.2785 20.5352V20H68.2785ZM67.8945 20.256L67.6629 21.2288L68.0867 21.3297L68.4492 21.0881L67.8945 20.256ZM57.1425 18.464L57.0454 19.4593L57.0477 19.4595L57.1425 18.464ZM32.8225 19.616L33.0802 20.5822L33.0873 20.5803L33.0945 20.5783L32.8225 19.616ZM23.8625 26.144L24.7044 26.6837L24.7044 26.6837L23.8625 26.144ZM22.3265 57.504L21.3693 57.7934L21.3734 57.8069L21.3778 57.8202L22.3265 57.504ZM28.8545 64.928L28.4576 65.8459L28.4724 65.8522L28.4873 65.8582L28.8545 64.928ZM46.2625 66.848V67.848H46.2888L46.3151 67.8466L46.2625 66.848ZM54.5825 66.208L54.825 67.1781L55.5825 66.9888V66.208H54.5825ZM55.5825 58.912C55.5825 56.1254 55.7092 53.603 55.9604 51.3424L53.9726 51.1216C53.7118 53.469 53.5825 56.0666 53.5825 58.912H55.5825ZM55.7986 50.6773L55.5426 50.2933L53.8785 51.4027L54.1345 51.7867L55.7986 50.6773ZM54.5691 49.858C52.2106 50.195 49.6353 50.4485 46.842 50.6178L46.963 52.6142C49.8017 52.4421 52.4317 52.1837 54.8519 51.8379L54.5691 49.858ZM46.8722 50.6165C44.0745 50.7012 41.4941 50.7011 39.1302 50.6166L39.0588 52.6154C41.4736 52.7016 44.0986 52.7014 46.9328 52.6155L46.8722 50.6165ZM40.0945 51.616V34.976H38.0945V51.616H40.0945ZM39.0983 35.976L72.5063 35.848L72.4987 33.848L39.0907 33.976L39.0983 35.976ZM71.5025 34.848V78.368H73.5025V34.848H71.5025ZM72.0872 77.4583C68.2426 79.2135 63.8371 80.6004 58.8632 81.6121L59.2618 83.5719C64.3573 82.5356 68.9118 81.1065 72.9178 79.2777L72.0872 77.4583ZM58.8762 81.6095C54.0113 82.5322 47.7648 83 40.1185 83V85C47.8322 85 54.2151 84.5292 59.2488 83.5745L58.8762 81.6095ZM40.1185 83C29.9476 83 22.0936 81.6407 16.4803 78.9992L15.6287 80.8088C21.6207 83.6286 29.8094 85 40.1185 85V83ZM16.4911 79.0043C10.9209 76.3012 6.99863 72.0161 4.69851 66.1016L2.8345 66.8264C5.31304 73.1999 9.58275 77.8748 15.6179 80.8037L16.4911 79.0043ZM4.70018 66.1059C2.37193 60.0358 1.1825 51.8946 1.1825 41.632H-0.8175C-0.8175 52.02 0.382407 60.4335 2.83283 66.8221L4.70018 66.1059ZM1.1825 41.632C1.1825 33.3339 2.11525 26.5865 3.94259 21.3537L2.05441 20.6943C0.127084 26.2135 -0.8175 33.2047 -0.8175 41.632H1.1825ZM3.93786 21.3669C5.85125 16.1259 8.57194 12.1557 12.0667 9.39241L10.8263 7.82358C6.9824 10.8629 4.07109 15.1701 2.05914 20.6811L3.93786 21.3669ZM12.069 9.3906C15.6843 6.51482 20.1 4.52559 25.3446 3.44336L24.9404 1.48463C19.433 2.62107 14.718 4.72784 10.824 7.82539L12.069 9.3906ZM25.3594 3.44018C30.6489 2.26475 36.7179 1.672 43.5745 1.672V-0.328003C36.6071 -0.328003 30.3881 0.273907 24.9256 1.48781L25.3594 3.44018ZM43.5745 1.672C47.6427 1.672 51.711 1.8415 55.7795 2.18054L55.9455 0.187452C51.822 -0.156176 47.6983 -0.328003 43.5745 -0.328003V1.672ZM55.7811 2.18068C59.9146 2.51811 64.0058 3.15076 68.0551 4.07873L68.5019 2.12926C64.3592 1.1799 60.1731 0.532556 55.9439 0.187314L55.7811 2.18068ZM67.2785 3.104V20H69.2785V3.104H67.2785ZM67.7238 19.1679L67.3398 19.4239L68.4492 21.0881L68.8332 20.8321L67.7238 19.1679ZM68.1261 19.2832C64.4981 18.4194 60.8684 17.8143 57.2373 17.4685L57.0477 19.4595C60.5846 19.7963 64.1229 20.3859 67.6629 21.2288L68.1261 19.2832ZM57.2396 17.4687C53.708 17.1242 50.1343 16.952 46.5185 16.952V18.952C50.0707 18.952 53.5796 19.1211 57.0454 19.4593L57.2396 17.4687ZM46.5185 16.952C41.2452 16.952 36.5848 17.5136 32.5505 18.6537L33.0945 20.5783C36.9109 19.4998 41.3811 18.952 46.5185 18.952V16.952ZM32.5648 18.6498C28.4851 19.7377 25.2894 22.065 23.0206 25.6043L24.7044 26.6837C26.7022 23.567 29.4799 21.5423 33.0802 20.5822L32.5648 18.6498ZM23.0206 25.6043C20.7316 29.1752 19.6625 34.5718 19.6625 41.632H21.6625C21.6625 34.6975 22.7267 29.7688 24.7044 26.6837L23.0206 25.6043ZM19.6625 41.632C19.6625 48.5768 20.2174 53.9834 21.3693 57.7934L23.2837 57.2146C22.2169 53.6859 21.6625 48.5112 21.6625 41.632H19.6625ZM21.3778 57.8202C22.6526 61.6444 25.0117 64.3558 28.4576 65.8459L29.2514 64.0101C26.3826 62.7696 24.3898 60.5315 23.2752 57.1878L21.3778 57.8202ZM28.4873 65.8582C31.9017 67.2059 36.6562 67.848 42.6785 67.848V65.848C36.7542 65.848 32.2926 65.2101 29.2217 63.9978L28.4873 65.8582ZM42.6785 67.848C42.68 67.848 42.6815 67.848 42.683 67.848C42.6845 67.848 42.686 67.848 42.6875 67.848C42.689 67.848 42.6905 67.848 42.692 67.848C42.6936 67.848 42.6951 67.848 42.6966 67.848C42.6981 67.848 42.6996 67.848 42.7011 67.848C42.7026 67.848 42.7042 67.848 42.7057 67.848C42.7072 67.848 42.7087 67.848 42.7102 67.848C42.7118 67.848 42.7133 67.848 42.7148 67.848C42.7163 67.848 42.7179 67.848 42.7194 67.848C42.7209 67.848 42.7225 67.848 42.724 67.848C42.7255 67.848 42.7271 67.848 42.7286 67.848C42.7301 67.848 42.7317 67.848 42.7332 67.848C42.7347 67.848 42.7363 67.848 42.7378 67.848C42.7394 67.848 42.7409 67.848 42.7425 67.848C42.744 67.848 42.7456 67.848 42.7471 67.848C42.7486 67.848 42.7502 67.848 42.7518 67.848C42.7533 67.848 42.7549 67.848 42.7564 67.848C42.758 67.848 42.7595 67.848 42.7611 67.848C42.7626 67.848 42.7642 67.848 42.7658 67.848C42.7673 67.848 42.7689 67.848 42.7705 67.848C42.772 67.848 42.7736 67.848 42.7752 67.848C42.7767 67.848 42.7783 67.848 42.7799 67.848C42.7814 67.848 42.783 67.848 42.7846 67.848C42.7862 67.848 42.7877 67.848 42.7893 67.848C42.7909 67.848 42.7925 67.848 42.7941 67.848C42.7956 67.848 42.7972 67.848 42.7988 67.848C42.8004 67.848 42.802 67.848 42.8036 67.848C42.8051 67.848 42.8067 67.848 42.8083 67.848C42.8099 67.848 42.8115 67.848 42.8131 67.848C42.8147 67.848 42.8163 67.848 42.8179 67.848C42.8195 67.848 42.8211 67.848 42.8227 67.848C42.8243 67.848 42.8259 67.848 42.8275 67.848C42.8291 67.848 42.8307 67.848 42.8323 67.848C42.8339 67.848 42.8355 67.848 42.8371 67.848C42.8388 67.848 42.8404 67.848 42.842 67.848C42.8436 67.848 42.8452 67.848 42.8468 67.848C42.8484 67.848 42.8501 67.848 42.8517 67.848C42.8533 67.848 42.8549 67.848 42.8566 67.848C42.8582 67.848 42.8598 67.848 42.8614 67.848C42.8631 67.848 42.8647 67.848 42.8663 67.848C42.8679 67.848 42.8696 67.848 42.8712 67.848C42.8728 67.848 42.8745 67.848 42.8761 67.848C42.8778 67.848 42.8794 67.848 42.881 67.848C42.8827 67.848 42.8843 67.848 42.886 67.848C42.8876 67.848 42.8892 67.848 42.8909 67.848C42.8925 67.848 42.8942 67.848 42.8958 67.848C42.8975 67.848 42.8991 67.848 42.9008 67.848C42.9024 67.848 42.9041 67.848 42.9058 67.848C42.9074 67.848 42.9091 67.848 42.9107 67.848C42.9124 67.848 42.914 67.848 42.9157 67.848C42.9174 67.848 42.919 67.848 42.9207 67.848C42.9224 67.848 42.924 67.848 42.9257 67.848C42.9274 67.848 42.929 67.848 42.9307 67.848C42.9324 67.848 42.9341 67.848 42.9357 67.848C42.9374 67.848 42.9391 67.848 42.9408 67.848C42.9425 67.848 42.9441 67.848 42.9458 67.848C42.9475 67.848 42.9492 67.848 42.9509 67.848C42.9526 67.848 42.9542 67.848 42.9559 67.848C42.9576 67.848 42.9593 67.848 42.961 67.848C42.9627 67.848 42.9644 67.848 42.9661 67.848C42.9678 67.848 42.9695 67.848 42.9712 67.848C42.9729 67.848 42.9746 67.848 42.9763 67.848C42.978 67.848 42.9797 67.848 42.9814 67.848C42.9831 67.848 42.9848 67.848 42.9865 67.848C42.9882 67.848 42.9899 67.848 42.9916 67.848C42.9933 67.848 42.9951 67.848 42.9968 67.848C42.9985 67.848 43.0002 67.848 43.0019 67.848C43.0036 67.848 43.0054 67.848 43.0071 67.848C43.0088 67.848 43.0105 67.848 43.0122 67.848C43.014 67.848 43.0157 67.848 43.0174 67.848C43.0192 67.848 43.0209 67.848 43.0226 67.848C43.0243 67.848 43.0261 67.848 43.0278 67.848C43.0295 67.848 43.0313 67.848 43.033 67.848C43.0348 67.848 43.0365 67.848 43.0382 67.848C43.04 67.848 43.0417 67.848 43.0435 67.848C43.0452 67.848 43.047 67.848 43.0487 67.848C43.0505 67.848 43.0522 67.848 43.054 67.848C43.0557 67.848 43.0575 67.848 43.0592 67.848C43.061 67.848 43.0627 67.848 43.0645 67.848C43.0662 67.848 43.068 67.848 43.0698 67.848C43.0715 67.848 43.0733 67.848 43.075 67.848C43.0768 67.848 43.0786 67.848 43.0803 67.848C43.0821 67.848 43.0839 67.848 43.0856 67.848C43.0874 67.848 43.0892 67.848 43.091 67.848C43.0927 67.848 43.0945 67.848 43.0963 67.848C43.0981 67.848 43.0998 67.848 43.1016 67.848C43.1034 67.848 43.1052 67.848 43.107 67.848C43.1087 67.848 43.1105 67.848 43.1123 67.848C43.1141 67.848 43.1159 67.848 43.1177 67.848C43.1195 67.848 43.1213 67.848 43.1231 67.848C43.1248 67.848 43.1266 67.848 43.1284 67.848C43.1302 67.848 43.132 67.848 43.1338 67.848C43.1356 67.848 43.1374 67.848 43.1392 67.848C43.141 67.848 43.1428 67.848 43.1446 67.848C43.1465 67.848 43.1483 67.848 43.1501 67.848C43.1519 67.848 43.1537 67.848 43.1555 67.848C43.1573 67.848 43.1591 67.848 43.1609 67.848C43.1628 67.848 43.1646 67.848 43.1664 67.848C43.1682 67.848 43.17 67.848 43.1719 67.848C43.1737 67.848 43.1755 67.848 43.1773 67.848C43.1792 67.848 43.181 67.848 43.1828 67.848C43.1846 67.848 43.1865 67.848 43.1883 67.848C43.1901 67.848 43.192 67.848 43.1938 67.848C43.1956 67.848 43.1975 67.848 43.1993 67.848C43.2012 67.848 43.203 67.848 43.2048 67.848C43.2067 67.848 43.2085 67.848 43.2104 67.848C43.2122 67.848 43.2141 67.848 43.2159 67.848C43.2178 67.848 43.2196 67.848 43.2215 67.848C43.2233 67.848 43.2252 67.848 43.227 67.848C43.2289 67.848 43.2307 67.848 43.2326 67.848C43.2344 67.848 43.2363 67.848 43.2382 67.848C43.24 67.848 43.2419 67.848 43.2438 67.848C43.2456 67.848 43.2475 67.848 43.2493 67.848C43.2512 67.848 43.2531 67.848 43.255 67.848C43.2568 67.848 43.2587 67.848 43.2606 67.848C43.2625 67.848 43.2643 67.848 43.2662 67.848C43.2681 67.848 43.27 67.848 43.2718 67.848C43.2737 67.848 43.2756 67.848 43.2775 67.848C43.2794 67.848 43.2813 67.848 43.2831 67.848C43.285 67.848 43.2869 67.848 43.2888 67.848C43.2907 67.848 43.2926 67.848 43.2945 67.848C43.2964 67.848 43.2983 67.848 43.3002 67.848C43.3021 67.848 43.304 67.848 43.3059 67.848C43.3078 67.848 43.3097 67.848 43.3116 67.848C43.3135 67.848 43.3154 67.848 43.3173 67.848C43.3192 67.848 43.3211 67.848 43.323 67.848C43.3249 67.848 43.3268 67.848 43.3288 67.848C43.3307 67.848 43.3326 67.848 43.3345 67.848C43.3364 67.848 43.3383 67.848 43.3403 67.848C43.3422 67.848 43.3441 67.848 43.346 67.848C43.3479 67.848 43.3499 67.848 43.3518 67.848C43.3537 67.848 43.3556 67.848 43.3576 67.848C43.3595 67.848 43.3614 67.848 43.3634 67.848C43.3653 67.848 43.3672 67.848 43.3692 67.848C43.3711 67.848 43.3731 67.848 43.375 67.848C43.3769 67.848 43.3789 67.848 43.3808 67.848C43.3828 67.848 43.3847 67.848 43.3866 67.848C43.3886 67.848 43.3905 67.848 43.3925 67.848C43.3944 67.848 43.3964 67.848 43.3983 67.848C43.4003 67.848 43.4022 67.848 43.4042 67.848C43.4062 67.848 43.4081 67.848 43.4101 67.848C43.412 67.848 43.414 67.848 43.416 67.848C43.4179 67.848 43.4199 67.848 43.4218 67.848C43.4238 67.848 43.4258 67.848 43.4278 67.848C43.4297 67.848 43.4317 67.848 43.4337 67.848C43.4356 67.848 43.4376 67.848 43.4396 67.848C43.4416 67.848 43.4435 67.848 43.4455 67.848C43.4475 67.848 43.4495 67.848 43.4515 67.848C43.4534 67.848 43.4554 67.848 43.4574 67.848C43.4594 67.848 43.4614 67.848 43.4634 67.848C43.4654 67.848 43.4673 67.848 43.4693 67.848C43.4713 67.848 43.4733 67.848 43.4753 67.848C43.4773 67.848 43.4793 67.848 43.4813 67.848C43.4833 67.848 43.4853 67.848 43.4873 67.848C43.4893 67.848 43.4913 67.848 43.4933 67.848C43.4953 67.848 43.4973 67.848 43.4993 67.848C43.5013 67.848 43.5033 67.848 43.5054 67.848C43.5074 67.848 43.5094 67.848 43.5114 67.848C43.5134 67.848 43.5154 67.848 43.5174 67.848C43.5195 67.848 43.5215 67.848 43.5235 67.848C43.5255 67.848 43.5275 67.848 43.5296 67.848C43.5316 67.848 43.5336 67.848 43.5356 67.848C43.5377 67.848 43.5397 67.848 43.5417 67.848C43.5438 67.848 43.5458 67.848 43.5478 67.848C43.5499 67.848 43.5519 67.848 43.5539 67.848C43.556 67.848 43.558 67.848 43.5601 67.848C43.5621 67.848 43.5641 67.848 43.5662 67.848C43.5682 67.848 43.5703 67.848 43.5723 67.848C43.5744 67.848 43.5764 67.848 43.5785 67.848C43.5805 67.848 43.5826 67.848 43.5846 67.848C43.5867 67.848 43.5887 67.848 43.5908 67.848C43.5928 67.848 43.5949 67.848 43.597 67.848C43.599 67.848 43.6011 67.848 43.6031 67.848C43.6052 67.848 43.6073 67.848 43.6093 67.848C43.6114 67.848 43.6135 67.848 43.6155 67.848C43.6176 67.848 43.6197 67.848 43.6218 67.848C43.6238 67.848 43.6259 67.848 43.628 67.848C43.6301 67.848 43.6321 67.848 43.6342 67.848C43.6363 67.848 43.6384 67.848 43.6405 67.848C43.6425 67.848 43.6446 67.848 43.6467 67.848C43.6488 67.848 43.6509 67.848 43.653 67.848C43.6551 67.848 43.6571 67.848 43.6592 67.848C43.6613 67.848 43.6634 67.848 43.6655 67.848C43.6676 67.848 43.6697 67.848 43.6718 67.848C43.6739 67.848 43.676 67.848 43.6781 67.848C43.6802 67.848 43.6823 67.848 43.6844 67.848C43.6865 67.848 43.6886 67.848 43.6907 67.848C43.6929 67.848 43.695 67.848 43.6971 67.848C43.6992 67.848 43.7013 67.848 43.7034 67.848C43.7055 67.848 43.7077 67.848 43.7098 67.848C43.7119 67.848 43.714 67.848 43.7161 67.848C43.7183 67.848 43.7204 67.848 43.7225 67.848C43.7246 67.848 43.7268 67.848 43.7289 67.848C43.731 67.848 43.7331 67.848 43.7353 67.848C43.7374 67.848 43.7395 67.848 43.7417 67.848C43.7438 67.848 43.7459 67.848 43.7481 67.848C43.7502 67.848 43.7524 67.848 43.7545 67.848C43.7566 67.848 43.7588 67.848 43.7609 67.848C43.7631 67.848 43.7652 67.848 43.7674 67.848C43.7695 67.848 43.7717 67.848 43.7738 67.848C43.776 67.848 43.7781 67.848 43.7803 67.848C43.7824 67.848 43.7846 67.848 43.7867 67.848C43.7889 67.848 43.7911 67.848 43.7932 67.848C43.7954 67.848 43.7975 67.848 43.7997 67.848C43.8019 67.848 43.804 67.848 43.8062 67.848C43.8084 67.848 43.8105 67.848 43.8127 67.848C43.8149 67.848 43.8171 67.848 43.8192 67.848C43.8214 67.848 43.8236 67.848 43.8258 67.848C43.8279 67.848 43.8301 67.848 43.8323 67.848C43.8345 67.848 43.8366 67.848 43.8388 67.848C43.841 67.848 43.8432 67.848 43.8454 67.848C43.8476 67.848 43.8498 67.848 43.852 67.848C43.8541 67.848 43.8563 67.848 43.8585 67.848C43.8607 67.848 43.8629 67.848 43.8651 67.848C43.8673 67.848 43.8695 67.848 43.8717 67.848C43.8739 67.848 43.8761 67.848 43.8783 67.848C43.8805 67.848 43.8827 67.848 43.8849 67.848C43.8871 67.848 43.8893 67.848 43.8916 67.848C43.8938 67.848 43.896 67.848 43.8982 67.848C43.9004 67.848 43.9026 67.848 43.9048 67.848C43.907 67.848 43.9093 67.848 43.9115 67.848C43.9137 67.848 43.9159 67.848 43.9181 67.848C43.9204 67.848 43.9226 67.848 43.9248 67.848C43.927 67.848 43.9293 67.848 43.9315 67.848C43.9337 67.848 43.936 67.848 43.9382 67.848C43.9404 67.848 43.9427 67.848 43.9449 67.848C43.9471 67.848 43.9494 67.848 43.9516 67.848C43.9538 67.848 43.9561 67.848 43.9583 67.848C43.9606 67.848 43.9628 67.848 43.9651 67.848C43.9673 67.848 43.9696 67.848 43.9718 67.848C43.9741 67.848 43.9763 67.848 43.9786 67.848C43.9808 67.848 43.9831 67.848 43.9853 67.848C43.9876 67.848 43.9898 67.848 43.9921 67.848C43.9943 67.848 43.9966 67.848 43.9989 67.848C44.0011 67.848 44.0034 67.848 44.0057 67.848C44.0079 67.848 44.0102 67.848 44.0125 67.848C44.0147 67.848 44.017 67.848 44.0193 67.848C44.0215 67.848 44.0238 67.848 44.0261 67.848C44.0284 67.848 44.0306 67.848 44.0329 67.848C44.0352 67.848 44.0375 67.848 44.0398 67.848C44.042 67.848 44.0443 67.848 44.0466 67.848C44.0489 67.848 44.0512 67.848 44.0535 67.848C44.0557 67.848 44.058 67.848 44.0603 67.848C44.0626 67.848 44.0649 67.848 44.0672 67.848C44.0695 67.848 44.0718 67.848 44.0741 67.848C44.0764 67.848 44.0787 67.848 44.081 67.848C44.0833 67.848 44.0856 67.848 44.0879 67.848C44.0902 67.848 44.0925 67.848 44.0948 67.848C44.0971 67.848 44.0994 67.848 44.1017 67.848C44.1041 67.848 44.1064 67.848 44.1087 67.848C44.111 67.848 44.1133 67.848 44.1156 67.848C44.1179 67.848 44.1203 67.848 44.1226 67.848C44.1249 67.848 44.1272 67.848 44.1295 67.848C44.1319 67.848 44.1342 67.848 44.1365 67.848C44.1388 67.848 44.1412 67.848 44.1435 67.848C44.1458 67.848 44.1482 67.848 44.1505 67.848C44.1528 67.848 44.1552 67.848 44.1575 67.848C44.1598 67.848 44.1622 67.848 44.1645 67.848C44.1669 67.848 44.1692 67.848 44.1715 67.848C44.1739 67.848 44.1762 67.848 44.1786 67.848C44.1809 67.848 44.1833 67.848 44.1856 67.848C44.188 67.848 44.1903 67.848 44.1927 67.848C44.195 67.848 44.1974 67.848 44.1997 67.848C44.2021 67.848 44.2045 67.848 44.2068 67.848C44.2092 67.848 44.2115 67.848 44.2139 67.848C44.2163 67.848 44.2186 67.848 44.221 67.848C44.2234 67.848 44.2257 67.848 44.2281 67.848C44.2305 67.848 44.2328 67.848 44.2352 67.848C44.2376 67.848 44.24 67.848 44.2423 67.848C44.2447 67.848 44.2471 67.848 44.2495 67.848C44.2518 67.848 44.2542 67.848 44.2566 67.848C44.259 67.848 44.2614 67.848 44.2638 67.848C44.2661 67.848 44.2685 67.848 44.2709 67.848C44.2733 67.848 44.2757 67.848 44.2781 67.848C44.2805 67.848 44.2829 67.848 44.2853 67.848C44.2877 67.848 44.2901 67.848 44.2925 67.848C44.2949 67.848 44.2973 67.848 44.2997 67.848C44.3021 67.848 44.3045 67.848 44.3069 67.848C44.3093 67.848 44.3117 67.848 44.3141 67.848C44.3165 67.848 44.3189 67.848 44.3213 67.848C44.3237 67.848 44.3261 67.848 44.3286 67.848C44.331 67.848 44.3334 67.848 44.3358 67.848C44.3382 67.848 44.3406 67.848 44.3431 67.848C44.3455 67.848 44.3479 67.848 44.3503 67.848C44.3528 67.848 44.3552 67.848 44.3576 67.848C44.36 67.848 44.3625 67.848 44.3649 67.848C44.3673 67.848 44.3698 67.848 44.3722 67.848C44.3746 67.848 44.3771 67.848 44.3795 67.848C44.3819 67.848 44.3844 67.848 44.3868 67.848C44.3893 67.848 44.3917 67.848 44.3941 67.848C44.3966 67.848 44.399 67.848 44.4015 67.848C44.4039 67.848 44.4064 67.848 44.4088 67.848C44.4113 67.848 44.4137 67.848 44.4162 67.848C44.4186 67.848 44.4211 67.848 44.4236 67.848C44.426 67.848 44.4285 67.848 44.4309 67.848C44.4334 67.848 44.4359 67.848 44.4383 67.848C44.4408 67.848 44.4432 67.848 44.4457 67.848C44.4482 67.848 44.4506 67.848 44.4531 67.848C44.4556 67.848 44.4581 67.848 44.4605 67.848C44.463 67.848 44.4655 67.848 44.468 67.848C44.4704 67.848 44.4729 67.848 44.4754 67.848C44.4779 67.848 44.4804 67.848 44.4828 67.848C44.4853 67.848 44.4878 67.848 44.4903 67.848C44.4928 67.848 44.4953 67.848 44.4978 67.848C44.5002 67.848 44.5027 67.848 44.5052 67.848C44.5077 67.848 44.5102 67.848 44.5127 67.848C44.5152 67.848 44.5177 67.848 44.5202 67.848C44.5227 67.848 44.5252 67.848 44.5277 67.848C44.5302 67.848 44.5327 67.848 44.5352 67.848C44.5377 67.848 44.5402 67.848 44.5427 67.848C44.5452 67.848 44.5478 67.848 44.5503 67.848C44.5528 67.848 44.5553 67.848 44.5578 67.848C44.5603 67.848 44.5628 67.848 44.5654 67.848C44.5679 67.848 44.5704 67.848 44.5729 67.848C44.5754 67.848 44.578 67.848 44.5805 67.848C44.583 67.848 44.5856 67.848 44.5881 67.848C44.5906 67.848 44.5931 67.848 44.5957 67.848C44.5982 67.848 44.6007 67.848 44.6033 67.848C44.6058 67.848 44.6083 67.848 44.6109 67.848C44.6134 67.848 44.616 67.848 44.6185 67.848C44.621 67.848 44.6236 67.848 44.6261 67.848C44.6287 67.848 44.6312 67.848 44.6338 67.848C44.6363 67.848 44.6389 67.848 44.6414 67.848C44.644 67.848 44.6465 67.848 44.6491 67.848C44.6516 67.848 44.6542 67.848 44.6567 67.848C44.6593 67.848 44.6619 67.848 44.6644 67.848C44.667 67.848 44.6696 67.848 44.6721 67.848C44.6747 67.848 44.6772 67.848 44.6798 67.848C44.6824 67.848 44.685 67.848 44.6875 67.848C44.6901 67.848 44.6927 67.848 44.6952 67.848C44.6978 67.848 44.7004 67.848 44.703 67.848C44.7055 67.848 44.7081 67.848 44.7107 67.848C44.7133 67.848 44.7159 67.848 44.7185 67.848C44.721 67.848 44.7236 67.848 44.7262 67.848C44.7288 67.848 44.7314 67.848 44.734 67.848C44.7366 67.848 44.7392 67.848 44.7418 67.848C44.7443 67.848 44.7469 67.848 44.7495 67.848C44.7521 67.848 44.7547 67.848 44.7573 67.848C44.7599 67.848 44.7625 67.848 44.7651 67.848C44.7677 67.848 44.7703 67.848 44.773 67.848C44.7756 67.848 44.7782 67.848 44.7808 67.848C44.7834 67.848 44.786 67.848 44.7886 67.848C44.7912 67.848 44.7938 67.848 44.7965 67.848C44.7991 67.848 44.8017 67.848 44.8043 67.848C44.8069 67.848 44.8096 67.848 44.8122 67.848C44.8148 67.848 44.8174 67.848 44.8201 67.848C44.8227 67.848 44.8253 67.848 44.8279 67.848C44.8306 67.848 44.8332 67.848 44.8358 67.848C44.8385 67.848 44.8411 67.848 44.8437 67.848C44.8464 67.848 44.849 67.848 44.8516 67.848C44.8543 67.848 44.8569 67.848 44.8596 67.848C44.8622 67.848 44.8649 67.848 44.8675 67.848C44.8701 67.848 44.8728 67.848 44.8754 67.848C44.8781 67.848 44.8807 67.848 44.8834 67.848C44.886 67.848 44.8887 67.848 44.8914 67.848C44.894 67.848 44.8967 67.848 44.8993 67.848C44.902 67.848 44.9046 67.848 44.9073 67.848C44.91 67.848 44.9126 67.848 44.9153 67.848C44.918 67.848 44.9206 67.848 44.9233 67.848C44.926 67.848 44.9286 67.848 44.9313 67.848C44.934 67.848 44.9367 67.848 44.9393 67.848C44.942 67.848 44.9447 67.848 44.9474 67.848C44.95 67.848 44.9527 67.848 44.9554 67.848C44.9581 67.848 44.9608 67.848 44.9635 67.848C44.9661 67.848 44.9688 67.848 44.9715 67.848C44.9742 67.848 44.9769 67.848 44.9796 67.848C44.9823 67.848 44.985 67.848 44.9877 67.848C44.9904 67.848 44.9931 67.848 44.9958 67.848C44.9984 67.848 45.0011 67.848 45.0038 67.848C45.0066 67.848 45.0093 67.848 45.012 67.848C45.0147 67.848 45.0174 67.848 45.0201 67.848C45.0228 67.848 45.0255 67.848 45.0282 67.848C45.0309 67.848 45.0336 67.848 45.0363 67.848C45.0391 67.848 45.0418 67.848 45.0445 67.848C45.0472 67.848 45.0499 67.848 45.0526 67.848C45.0554 67.848 45.0581 67.848 45.0608 67.848C45.0635 67.848 45.0663 67.848 45.069 67.848C45.0717 67.848 45.0744 67.848 45.0772 67.848C45.0799 67.848 45.0826 67.848 45.0854 67.848C45.0881 67.848 45.0908 67.848 45.0936 67.848C45.0963 67.848 45.0991 67.848 45.1018 67.848C45.1045 67.848 45.1073 67.848 45.11 67.848C45.1128 67.848 45.1155 67.848 45.1183 67.848C45.121 67.848 45.1238 67.848 45.1265 67.848C45.1293 67.848 45.132 67.848 45.1348 67.848C45.1375 67.848 45.1403 67.848 45.143 67.848C45.1458 67.848 45.1485 67.848 45.1513 67.848C45.1541 67.848 45.1568 67.848 45.1596 67.848C45.1623 67.848 45.1651 67.848 45.1679 67.848C45.1706 67.848 45.1734 67.848 45.1762 67.848C45.1789 67.848 45.1817 67.848 45.1845 67.848C45.1873 67.848 45.19 67.848 45.1928 67.848C45.1956 67.848 45.1984 67.848 45.2011 67.848C45.2039 67.848 45.2067 67.848 45.2095 67.848C45.2123 67.848 45.2151 67.848 45.2178 67.848C45.2206 67.848 45.2234 67.848 45.2262 67.848C45.229 67.848 45.2318 67.848 45.2346 67.848C45.2374 67.848 45.2402 67.848 45.243 67.848C45.2458 67.848 45.2486 67.848 45.2513 67.848C45.2541 67.848 45.2569 67.848 45.2598 67.848C45.2626 67.848 45.2654 67.848 45.2682 67.848C45.271 67.848 45.2738 67.848 45.2766 67.848C45.2794 67.848 45.2822 67.848 45.285 67.848C45.2878 67.848 45.2906 67.848 45.2935 67.848C45.2963 67.848 45.2991 67.848 45.3019 67.848C45.3047 67.848 45.3075 67.848 45.3104 67.848C45.3132 67.848 45.316 67.848 45.3188 67.848C45.3217 67.848 45.3245 67.848 45.3273 67.848C45.3301 67.848 45.333 67.848 45.3358 67.848C45.3386 67.848 45.3415 67.848 45.3443 67.848C45.3471 67.848 45.35 67.848 45.3528 67.848C45.3556 67.848 45.3585 67.848 45.3613 67.848C45.3642 67.848 45.367 67.848 45.3699 67.848C45.3727 67.848 45.3755 67.848 45.3784 67.848C45.3812 67.848 45.3841 67.848 45.3869 67.848C45.3898 67.848 45.3926 67.848 45.3955 67.848C45.3984 67.848 45.4012 67.848 45.4041 67.848C45.4069 67.848 45.4098 67.848 45.4126 67.848C45.4155 67.848 45.4184 67.848 45.4212 67.848C45.4241 67.848 45.427 67.848 45.4298 67.848C45.4327 67.848 45.4356 67.848 45.4384 67.848C45.4413 67.848 45.4442 67.848 45.4471 67.848C45.4499 67.848 45.4528 67.848 45.4557 67.848C45.4586 67.848 45.4614 67.848 45.4643 67.848C45.4672 67.848 45.4701 67.848 45.473 67.848C45.4758 67.848 45.4787 67.848 45.4816 67.848C45.4845 67.848 45.4874 67.848 45.4903 67.848C45.4932 67.848 45.4961 67.848 45.499 67.848C45.5018 67.848 45.5047 67.848 45.5076 67.848C45.5105 67.848 45.5134 67.848 45.5163 67.848C45.5192 67.848 45.5221 67.848 45.525 67.848C45.5279 67.848 45.5308 67.848 45.5338 67.848C45.5367 67.848 45.5396 67.848 45.5425 67.848C45.5454 67.848 45.5483 67.848 45.5512 67.848C45.5541 67.848 45.557 67.848 45.56 67.848C45.5629 67.848 45.5658 67.848 45.5687 67.848C45.5716 67.848 45.5745 67.848 45.5775 67.848C45.5804 67.848 45.5833 67.848 45.5862 67.848C45.5892 67.848 45.5921 67.848 45.595 67.848C45.598 67.848 45.6009 67.848 45.6038 67.848C45.6067 67.848 45.6097 67.848 45.6126 67.848C45.6156 67.848 45.6185 67.848 45.6214 67.848C45.6244 67.848 45.6273 67.848 45.6302 67.848C45.6332 67.848 45.6361 67.848 45.6391 67.848C45.642 67.848 45.645 67.848 45.6479 67.848C45.6509 67.848 45.6538 67.848 45.6568 67.848C45.6597 67.848 45.6627 67.848 45.6656 67.848C45.6686 67.848 45.6715 67.848 45.6745 67.848C45.6775 67.848 45.6804 67.848 45.6834 67.848C45.6863 67.848 45.6893 67.848 45.6923 67.848C45.6952 67.848 45.6982 67.848 45.7012 67.848C45.7041 67.848 45.7071 67.848 45.7101 67.848C45.7131 67.848 45.716 67.848 45.719 67.848C45.722 67.848 45.7249 67.848 45.7279 67.848C45.7309 67.848 45.7339 67.848 45.7369 67.848C45.7398 67.848 45.7428 67.848 45.7458 67.848C45.7488 67.848 45.7518 67.848 45.7548 67.848C45.7578 67.848 45.7607 67.848 45.7637 67.848C45.7667 67.848 45.7697 67.848 45.7727 67.848C45.7757 67.848 45.7787 67.848 45.7817 67.848C45.7847 67.848 45.7877 67.848 45.7907 67.848C45.7937 67.848 45.7967 67.848 45.7997 67.848C45.8027 67.848 45.8057 67.848 45.8087 67.848C45.8117 67.848 45.8147 67.848 45.8178 67.848C45.8208 67.848 45.8238 67.848 45.8268 67.848C45.8298 67.848 45.8328 67.848 45.8358 67.848C45.8388 67.848 45.8419 67.848 45.8449 67.848C45.8479 67.848 45.8509 67.848 45.854 67.848C45.857 67.848 45.86 67.848 45.863 67.848C45.8661 67.848 45.8691 67.848 45.8721 67.848C45.8751 67.848 45.8782 67.848 45.8812 67.848C45.8842 67.848 45.8873 67.848 45.8903 67.848C45.8933 67.848 45.8964 67.848 45.8994 67.848C45.9025 67.848 45.9055 67.848 45.9086 67.848C45.9116 67.848 45.9146 67.848 45.9177 67.848C45.9207 67.848 45.9238 67.848 45.9268 67.848C45.9299 67.848 45.9329 67.848 45.936 67.848C45.939 67.848 45.9421 67.848 45.9451 67.848C45.9482 67.848 45.9513 67.848 45.9543 67.848C45.9574 67.848 45.9604 67.848 45.9635 67.848C45.9666 67.848 45.9696 67.848 45.9727 67.848C45.9758 67.848 45.9788 67.848 45.9819 67.848C45.985 67.848 45.988 67.848 45.9911 67.848C45.9942 67.848 45.9973 67.848 46.0003 67.848C46.0034 67.848 46.0065 67.848 46.0096 67.848C46.0126 67.848 46.0157 67.848 46.0188 67.848C46.0219 67.848 46.025 67.848 46.0281 67.848C46.0311 67.848 46.0342 67.848 46.0373 67.848C46.0404 67.848 46.0435 67.848 46.0466 67.848C46.0497 67.848 46.0528 67.848 46.0559 67.848C46.059 67.848 46.0621 67.848 46.0652 67.848C46.0683 67.848 46.0714 67.848 46.0745 67.848C46.0776 67.848 46.0807 67.848 46.0838 67.848C46.0869 67.848 46.09 67.848 46.0931 67.848C46.0962 67.848 46.0993 67.848 46.1024 67.848C46.1055 67.848 46.1086 67.848 46.1118 67.848C46.1149 67.848 46.118 67.848 46.1211 67.848C46.1242 67.848 46.1273 67.848 46.1305 67.848C46.1336 67.848 46.1367 67.848 46.1398 67.848C46.143 67.848 46.1461 67.848 46.1492 67.848C46.1523 67.848 46.1555 67.848 46.1586 67.848C46.1617 67.848 46.1649 67.848 46.168 67.848C46.1711 67.848 46.1743 67.848 46.1774 67.848C46.1805 67.848 46.1837 67.848 46.1868 67.848C46.19 67.848 46.1931 67.848 46.1962 67.848C46.1994 67.848 46.2025 67.848 46.2057 67.848C46.2088 67.848 46.212 67.848 46.2151 67.848C46.2183 67.848 46.2214 67.848 46.2246 67.848C46.2277 67.848 46.2309 67.848 46.234 67.848C46.2372 67.848 46.2404 67.848 46.2435 67.848C46.2467 67.848 46.2498 67.848 46.253 67.848C46.2562 67.848 46.2593 67.848 46.2625 67.848V65.848C46.2593 65.848 46.2562 65.848 46.253 65.848C46.2498 65.848 46.2467 65.848 46.2435 65.848C46.2404 65.848 46.2372 65.848 46.234 65.848C46.2309 65.848 46.2277 65.848 46.2246 65.848C46.2214 65.848 46.2183 65.848 46.2151 65.848C46.212 65.848 46.2088 65.848 46.2057 65.848C46.2025 65.848 46.1994 65.848 46.1962 65.848C46.1931 65.848 46.19 65.848 46.1868 65.848C46.1837 65.848 46.1805 65.848 46.1774 65.848C46.1743 65.848 46.1711 65.848 46.168 65.848C46.1649 65.848 46.1617 65.848 46.1586 65.848C46.1555 65.848 46.1523 65.848 46.1492 65.848C46.1461 65.848 46.143 65.848 46.1398 65.848C46.1367 65.848 46.1336 65.848 46.1305 65.848C46.1273 65.848 46.1242 65.848 46.1211 65.848C46.118 65.848 46.1149 65.848 46.1118 65.848C46.1086 65.848 46.1055 65.848 46.1024 65.848C46.0993 65.848 46.0962 65.848 46.0931 65.848C46.09 65.848 46.0869 65.848 46.0838 65.848C46.0807 65.848 46.0776 65.848 46.0745 65.848C46.0714 65.848 46.0683 65.848 46.0652 65.848C46.0621 65.848 46.059 65.848 46.0559 65.848C46.0528 65.848 46.0497 65.848 46.0466 65.848C46.0435 65.848 46.0404 65.848 46.0373 65.848C46.0342 65.848 46.0311 65.848 46.0281 65.848C46.025 65.848 46.0219 65.848 46.0188 65.848C46.0157 65.848 46.0126 65.848 46.0096 65.848C46.0065 65.848 46.0034 65.848 46.0003 65.848C45.9973 65.848 45.9942 65.848 45.9911 65.848C45.988 65.848 45.985 65.848 45.9819 65.848C45.9788 65.848 45.9758 65.848 45.9727 65.848C45.9696 65.848 45.9666 65.848 45.9635 65.848C45.9604 65.848 45.9574 65.848 45.9543 65.848C45.9513 65.848 45.9482 65.848 45.9451 65.848C45.9421 65.848 45.939 65.848 45.936 65.848C45.9329 65.848 45.9299 65.848 45.9268 65.848C45.9238 65.848 45.9207 65.848 45.9177 65.848C45.9146 65.848 45.9116 65.848 45.9086 65.848C45.9055 65.848 45.9025 65.848 45.8994 65.848C45.8964 65.848 45.8933 65.848 45.8903 65.848C45.8873 65.848 45.8842 65.848 45.8812 65.848C45.8782 65.848 45.8751 65.848 45.8721 65.848C45.8691 65.848 45.8661 65.848 45.863 65.848C45.86 65.848 45.857 65.848 45.854 65.848C45.8509 65.848 45.8479 65.848 45.8449 65.848C45.8419 65.848 45.8388 65.848 45.8358 65.848C45.8328 65.848 45.8298 65.848 45.8268 65.848C45.8238 65.848 45.8208 65.848 45.8178 65.848C45.8147 65.848 45.8117 65.848 45.8087 65.848C45.8057 65.848 45.8027 65.848 45.7997 65.848C45.7967 65.848 45.7937 65.848 45.7907 65.848C45.7877 65.848 45.7847 65.848 45.7817 65.848C45.7787 65.848 45.7757 65.848 45.7727 65.848C45.7697 65.848 45.7667 65.848 45.7637 65.848C45.7607 65.848 45.7578 65.848 45.7548 65.848C45.7518 65.848 45.7488 65.848 45.7458 65.848C45.7428 65.848 45.7398 65.848 45.7369 65.848C45.7339 65.848 45.7309 65.848 45.7279 65.848C45.7249 65.848 45.722 65.848 45.719 65.848C45.716 65.848 45.7131 65.848 45.7101 65.848C45.7071 65.848 45.7041 65.848 45.7012 65.848C45.6982 65.848 45.6952 65.848 45.6923 65.848C45.6893 65.848 45.6863 65.848 45.6834 65.848C45.6804 65.848 45.6775 65.848 45.6745 65.848C45.6715 65.848 45.6686 65.848 45.6656 65.848C45.6627 65.848 45.6597 65.848 45.6568 65.848C45.6538 65.848 45.6509 65.848 45.6479 65.848C45.645 65.848 45.642 65.848 45.6391 65.848C45.6361 65.848 45.6332 65.848 45.6302 65.848C45.6273 65.848 45.6244 65.848 45.6214 65.848C45.6185 65.848 45.6156 65.848 45.6126 65.848C45.6097 65.848 45.6067 65.848 45.6038 65.848C45.6009 65.848 45.598 65.848 45.595 65.848C45.5921 65.848 45.5892 65.848 45.5862 65.848C45.5833 65.848 45.5804 65.848 45.5775 65.848C45.5745 65.848 45.5716 65.848 45.5687 65.848C45.5658 65.848 45.5629 65.848 45.56 65.848C45.557 65.848 45.5541 65.848 45.5512 65.848C45.5483 65.848 45.5454 65.848 45.5425 65.848C45.5396 65.848 45.5367 65.848 45.5338 65.848C45.5308 65.848 45.5279 65.848 45.525 65.848C45.5221 65.848 45.5192 65.848 45.5163 65.848C45.5134 65.848 45.5105 65.848 45.5076 65.848C45.5047 65.848 45.5018 65.848 45.499 65.848C45.4961 65.848 45.4932 65.848 45.4903 65.848C45.4874 65.848 45.4845 65.848 45.4816 65.848C45.4787 65.848 45.4758 65.848 45.473 65.848C45.4701 65.848 45.4672 65.848 45.4643 65.848C45.4614 65.848 45.4586 65.848 45.4557 65.848C45.4528 65.848 45.4499 65.848 45.4471 65.848C45.4442 65.848 45.4413 65.848 45.4384 65.848C45.4356 65.848 45.4327 65.848 45.4298 65.848C45.427 65.848 45.4241 65.848 45.4212 65.848C45.4184 65.848 45.4155 65.848 45.4126 65.848C45.4098 65.848 45.4069 65.848 45.4041 65.848C45.4012 65.848 45.3984 65.848 45.3955 65.848C45.3926 65.848 45.3898 65.848 45.3869 65.848C45.3841 65.848 45.3812 65.848 45.3784 65.848C45.3755 65.848 45.3727 65.848 45.3699 65.848C45.367 65.848 45.3642 65.848 45.3613 65.848C45.3585 65.848 45.3556 65.848 45.3528 65.848C45.35 65.848 45.3471 65.848 45.3443 65.848C45.3415 65.848 45.3386 65.848 45.3358 65.848C45.333 65.848 45.3301 65.848 45.3273 65.848C45.3245 65.848 45.3217 65.848 45.3188 65.848C45.316 65.848 45.3132 65.848 45.3104 65.848C45.3075 65.848 45.3047 65.848 45.3019 65.848C45.2991 65.848 45.2963 65.848 45.2935 65.848C45.2906 65.848 45.2878 65.848 45.285 65.848C45.2822 65.848 45.2794 65.848 45.2766 65.848C45.2738 65.848 45.271 65.848 45.2682 65.848C45.2654 65.848 45.2626 65.848 45.2598 65.848C45.2569 65.848 45.2541 65.848 45.2513 65.848C45.2486 65.848 45.2458 65.848 45.243 65.848C45.2402 65.848 45.2374 65.848 45.2346 65.848C45.2318 65.848 45.229 65.848 45.2262 65.848C45.2234 65.848 45.2206 65.848 45.2178 65.848C45.2151 65.848 45.2123 65.848 45.2095 65.848C45.2067 65.848 45.2039 65.848 45.2011 65.848C45.1984 65.848 45.1956 65.848 45.1928 65.848C45.19 65.848 45.1873 65.848 45.1845 65.848C45.1817 65.848 45.1789 65.848 45.1762 65.848C45.1734 65.848 45.1706 65.848 45.1679 65.848C45.1651 65.848 45.1623 65.848 45.1596 65.848C45.1568 65.848 45.1541 65.848 45.1513 65.848C45.1485 65.848 45.1458 65.848 45.143 65.848C45.1403 65.848 45.1375 65.848 45.1348 65.848C45.132 65.848 45.1293 65.848 45.1265 65.848C45.1238 65.848 45.121 65.848 45.1183 65.848C45.1155 65.848 45.1128 65.848 45.11 65.848C45.1073 65.848 45.1045 65.848 45.1018 65.848C45.0991 65.848 45.0963 65.848 45.0936 65.848C45.0908 65.848 45.0881 65.848 45.0854 65.848C45.0826 65.848 45.0799 65.848 45.0772 65.848C45.0744 65.848 45.0717 65.848 45.069 65.848C45.0663 65.848 45.0635 65.848 45.0608 65.848C45.0581 65.848 45.0554 65.848 45.0526 65.848C45.0499 65.848 45.0472 65.848 45.0445 65.848C45.0418 65.848 45.0391 65.848 45.0363 65.848C45.0336 65.848 45.0309 65.848 45.0282 65.848C45.0255 65.848 45.0228 65.848 45.0201 65.848C45.0174 65.848 45.0147 65.848 45.012 65.848C45.0093 65.848 45.0066 65.848 45.0038 65.848C45.0011 65.848 44.9984 65.848 44.9958 65.848C44.9931 65.848 44.9904 65.848 44.9877 65.848C44.985 65.848 44.9823 65.848 44.9796 65.848C44.9769 65.848 44.9742 65.848 44.9715 65.848C44.9688 65.848 44.9661 65.848 44.9635 65.848C44.9608 65.848 44.9581 65.848 44.9554 65.848C44.9527 65.848 44.95 65.848 44.9474 65.848C44.9447 65.848 44.942 65.848 44.9393 65.848C44.9367 65.848 44.934 65.848 44.9313 65.848C44.9286 65.848 44.926 65.848 44.9233 65.848C44.9206 65.848 44.918 65.848 44.9153 65.848C44.9126 65.848 44.91 65.848 44.9073 65.848C44.9046 65.848 44.902 65.848 44.8993 65.848C44.8967 65.848 44.894 65.848 44.8914 65.848C44.8887 65.848 44.886 65.848 44.8834 65.848C44.8807 65.848 44.8781 65.848 44.8754 65.848C44.8728 65.848 44.8701 65.848 44.8675 65.848C44.8649 65.848 44.8622 65.848 44.8596 65.848C44.8569 65.848 44.8543 65.848 44.8516 65.848C44.849 65.848 44.8464 65.848 44.8437 65.848C44.8411 65.848 44.8385 65.848 44.8358 65.848C44.8332 65.848 44.8306 65.848 44.8279 65.848C44.8253 65.848 44.8227 65.848 44.8201 65.848C44.8174 65.848 44.8148 65.848 44.8122 65.848C44.8096 65.848 44.8069 65.848 44.8043 65.848C44.8017 65.848 44.7991 65.848 44.7965 65.848C44.7938 65.848 44.7912 65.848 44.7886 65.848C44.786 65.848 44.7834 65.848 44.7808 65.848C44.7782 65.848 44.7756 65.848 44.773 65.848C44.7703 65.848 44.7677 65.848 44.7651 65.848C44.7625 65.848 44.7599 65.848 44.7573 65.848C44.7547 65.848 44.7521 65.848 44.7495 65.848C44.7469 65.848 44.7443 65.848 44.7418 65.848C44.7392 65.848 44.7366 65.848 44.734 65.848C44.7314 65.848 44.7288 65.848 44.7262 65.848C44.7236 65.848 44.721 65.848 44.7185 65.848C44.7159 65.848 44.7133 65.848 44.7107 65.848C44.7081 65.848 44.7055 65.848 44.703 65.848C44.7004 65.848 44.6978 65.848 44.6952 65.848C44.6927 65.848 44.6901 65.848 44.6875 65.848C44.685 65.848 44.6824 65.848 44.6798 65.848C44.6772 65.848 44.6747 65.848 44.6721 65.848C44.6696 65.848 44.667 65.848 44.6644 65.848C44.6619 65.848 44.6593 65.848 44.6567 65.848C44.6542 65.848 44.6516 65.848 44.6491 65.848C44.6465 65.848 44.644 65.848 44.6414 65.848C44.6389 65.848 44.6363 65.848 44.6338 65.848C44.6312 65.848 44.6287 65.848 44.6261 65.848C44.6236 65.848 44.621 65.848 44.6185 65.848C44.616 65.848 44.6134 65.848 44.6109 65.848C44.6083 65.848 44.6058 65.848 44.6033 65.848C44.6007 65.848 44.5982 65.848 44.5957 65.848C44.5931 65.848 44.5906 65.848 44.5881 65.848C44.5856 65.848 44.583 65.848 44.5805 65.848C44.578 65.848 44.5754 65.848 44.5729 65.848C44.5704 65.848 44.5679 65.848 44.5654 65.848C44.5628 65.848 44.5603 65.848 44.5578 65.848C44.5553 65.848 44.5528 65.848 44.5503 65.848C44.5478 65.848 44.5452 65.848 44.5427 65.848C44.5402 65.848 44.5377 65.848 44.5352 65.848C44.5327 65.848 44.5302 65.848 44.5277 65.848C44.5252 65.848 44.5227 65.848 44.5202 65.848C44.5177 65.848 44.5152 65.848 44.5127 65.848C44.5102 65.848 44.5077 65.848 44.5052 65.848C44.5027 65.848 44.5002 65.848 44.4978 65.848C44.4953 65.848 44.4928 65.848 44.4903 65.848C44.4878 65.848 44.4853 65.848 44.4828 65.848C44.4804 65.848 44.4779 65.848 44.4754 65.848C44.4729 65.848 44.4704 65.848 44.468 65.848C44.4655 65.848 44.463 65.848 44.4605 65.848C44.4581 65.848 44.4556 65.848 44.4531 65.848C44.4506 65.848 44.4482 65.848 44.4457 65.848C44.4432 65.848 44.4408 65.848 44.4383 65.848C44.4359 65.848 44.4334 65.848 44.4309 65.848C44.4285 65.848 44.426 65.848 44.4236 65.848C44.4211 65.848 44.4186 65.848 44.4162 65.848C44.4137 65.848 44.4113 65.848 44.4088 65.848C44.4064 65.848 44.4039 65.848 44.4015 65.848C44.399 65.848 44.3966 65.848 44.3941 65.848C44.3917 65.848 44.3893 65.848 44.3868 65.848C44.3844 65.848 44.3819 65.848 44.3795 65.848C44.3771 65.848 44.3746 65.848 44.3722 65.848C44.3698 65.848 44.3673 65.848 44.3649 65.848C44.3625 65.848 44.36 65.848 44.3576 65.848C44.3552 65.848 44.3528 65.848 44.3503 65.848C44.3479 65.848 44.3455 65.848 44.3431 65.848C44.3406 65.848 44.3382 65.848 44.3358 65.848C44.3334 65.848 44.331 65.848 44.3286 65.848C44.3261 65.848 44.3237 65.848 44.3213 65.848C44.3189 65.848 44.3165 65.848 44.3141 65.848C44.3117 65.848 44.3093 65.848 44.3069 65.848C44.3045 65.848 44.3021 65.848 44.2997 65.848C44.2973 65.848 44.2949 65.848 44.2925 65.848C44.2901 65.848 44.2877 65.848 44.2853 65.848C44.2829 65.848 44.2805 65.848 44.2781 65.848C44.2757 65.848 44.2733 65.848 44.2709 65.848C44.2685 65.848 44.2661 65.848 44.2638 65.848C44.2614 65.848 44.259 65.848 44.2566 65.848C44.2542 65.848 44.2518 65.848 44.2495 65.848C44.2471 65.848 44.2447 65.848 44.2423 65.848C44.24 65.848 44.2376 65.848 44.2352 65.848C44.2328 65.848 44.2305 65.848 44.2281 65.848C44.2257 65.848 44.2234 65.848 44.221 65.848C44.2186 65.848 44.2163 65.848 44.2139 65.848C44.2115 65.848 44.2092 65.848 44.2068 65.848C44.2045 65.848 44.2021 65.848 44.1997 65.848C44.1974 65.848 44.195 65.848 44.1927 65.848C44.1903 65.848 44.188 65.848 44.1856 65.848C44.1833 65.848 44.1809 65.848 44.1786 65.848C44.1762 65.848 44.1739 65.848 44.1715 65.848C44.1692 65.848 44.1669 65.848 44.1645 65.848C44.1622 65.848 44.1598 65.848 44.1575 65.848C44.1552 65.848 44.1528 65.848 44.1505 65.848C44.1482 65.848 44.1458 65.848 44.1435 65.848C44.1412 65.848 44.1388 65.848 44.1365 65.848C44.1342 65.848 44.1319 65.848 44.1295 65.848C44.1272 65.848 44.1249 65.848 44.1226 65.848C44.1203 65.848 44.1179 65.848 44.1156 65.848C44.1133 65.848 44.111 65.848 44.1087 65.848C44.1064 65.848 44.1041 65.848 44.1017 65.848C44.0994 65.848 44.0971 65.848 44.0948 65.848C44.0925 65.848 44.0902 65.848 44.0879 65.848C44.0856 65.848 44.0833 65.848 44.081 65.848C44.0787 65.848 44.0764 65.848 44.0741 65.848C44.0718 65.848 44.0695 65.848 44.0672 65.848C44.0649 65.848 44.0626 65.848 44.0603 65.848C44.058 65.848 44.0557 65.848 44.0535 65.848C44.0512 65.848 44.0489 65.848 44.0466 65.848C44.0443 65.848 44.042 65.848 44.0398 65.848C44.0375 65.848 44.0352 65.848 44.0329 65.848C44.0306 65.848 44.0284 65.848 44.0261 65.848C44.0238 65.848 44.0215 65.848 44.0193 65.848C44.017 65.848 44.0147 65.848 44.0125 65.848C44.0102 65.848 44.0079 65.848 44.0057 65.848C44.0034 65.848 44.0011 65.848 43.9989 65.848C43.9966 65.848 43.9943 65.848 43.9921 65.848C43.9898 65.848 43.9876 65.848 43.9853 65.848C43.9831 65.848 43.9808 65.848 43.9786 65.848C43.9763 65.848 43.9741 65.848 43.9718 65.848C43.9696 65.848 43.9673 65.848 43.9651 65.848C43.9628 65.848 43.9606 65.848 43.9583 65.848C43.9561 65.848 43.9538 65.848 43.9516 65.848C43.9494 65.848 43.9471 65.848 43.9449 65.848C43.9427 65.848 43.9404 65.848 43.9382 65.848C43.936 65.848 43.9337 65.848 43.9315 65.848C43.9293 65.848 43.927 65.848 43.9248 65.848C43.9226 65.848 43.9204 65.848 43.9181 65.848C43.9159 65.848 43.9137 65.848 43.9115 65.848C43.9093 65.848 43.907 65.848 43.9048 65.848C43.9026 65.848 43.9004 65.848 43.8982 65.848C43.896 65.848 43.8938 65.848 43.8916 65.848C43.8893 65.848 43.8871 65.848 43.8849 65.848C43.8827 65.848 43.8805 65.848 43.8783 65.848C43.8761 65.848 43.8739 65.848 43.8717 65.848C43.8695 65.848 43.8673 65.848 43.8651 65.848C43.8629 65.848 43.8607 65.848 43.8585 65.848C43.8563 65.848 43.8541 65.848 43.852 65.848C43.8498 65.848 43.8476 65.848 43.8454 65.848C43.8432 65.848 43.841 65.848 43.8388 65.848C43.8366 65.848 43.8345 65.848 43.8323 65.848C43.8301 65.848 43.8279 65.848 43.8258 65.848C43.8236 65.848 43.8214 65.848 43.8192 65.848C43.8171 65.848 43.8149 65.848 43.8127 65.848C43.8105 65.848 43.8084 65.848 43.8062 65.848C43.804 65.848 43.8019 65.848 43.7997 65.848C43.7975 65.848 43.7954 65.848 43.7932 65.848C43.7911 65.848 43.7889 65.848 43.7867 65.848C43.7846 65.848 43.7824 65.848 43.7803 65.848C43.7781 65.848 43.776 65.848 43.7738 65.848C43.7717 65.848 43.7695 65.848 43.7674 65.848C43.7652 65.848 43.7631 65.848 43.7609 65.848C43.7588 65.848 43.7566 65.848 43.7545 65.848C43.7524 65.848 43.7502 65.848 43.7481 65.848C43.7459 65.848 43.7438 65.848 43.7417 65.848C43.7395 65.848 43.7374 65.848 43.7353 65.848C43.7331 65.848 43.731 65.848 43.7289 65.848C43.7268 65.848 43.7246 65.848 43.7225 65.848C43.7204 65.848 43.7183 65.848 43.7161 65.848C43.714 65.848 43.7119 65.848 43.7098 65.848C43.7077 65.848 43.7055 65.848 43.7034 65.848C43.7013 65.848 43.6992 65.848 43.6971 65.848C43.695 65.848 43.6929 65.848 43.6907 65.848C43.6886 65.848 43.6865 65.848 43.6844 65.848C43.6823 65.848 43.6802 65.848 43.6781 65.848C43.676 65.848 43.6739 65.848 43.6718 65.848C43.6697 65.848 43.6676 65.848 43.6655 65.848C43.6634 65.848 43.6613 65.848 43.6592 65.848C43.6571 65.848 43.6551 65.848 43.653 65.848C43.6509 65.848 43.6488 65.848 43.6467 65.848C43.6446 65.848 43.6425 65.848 43.6405 65.848C43.6384 65.848 43.6363 65.848 43.6342 65.848C43.6321 65.848 43.6301 65.848 43.628 65.848C43.6259 65.848 43.6238 65.848 43.6218 65.848C43.6197 65.848 43.6176 65.848 43.6155 65.848C43.6135 65.848 43.6114 65.848 43.6093 65.848C43.6073 65.848 43.6052 65.848 43.6031 65.848C43.6011 65.848 43.599 65.848 43.597 65.848C43.5949 65.848 43.5928 65.848 43.5908 65.848C43.5887 65.848 43.5867 65.848 43.5846 65.848C43.5826 65.848 43.5805 65.848 43.5785 65.848C43.5764 65.848 43.5744 65.848 43.5723 65.848C43.5703 65.848 43.5682 65.848 43.5662 65.848C43.5641 65.848 43.5621 65.848 43.5601 65.848C43.558 65.848 43.556 65.848 43.5539 65.848C43.5519 65.848 43.5499 65.848 43.5478 65.848C43.5458 65.848 43.5438 65.848 43.5417 65.848C43.5397 65.848 43.5377 65.848 43.5356 65.848C43.5336 65.848 43.5316 65.848 43.5296 65.848C43.5275 65.848 43.5255 65.848 43.5235 65.848C43.5215 65.848 43.5195 65.848 43.5174 65.848C43.5154 65.848 43.5134 65.848 43.5114 65.848C43.5094 65.848 43.5074 65.848 43.5054 65.848C43.5033 65.848 43.5013 65.848 43.4993 65.848C43.4973 65.848 43.4953 65.848 43.4933 65.848C43.4913 65.848 43.4893 65.848 43.4873 65.848C43.4853 65.848 43.4833 65.848 43.4813 65.848C43.4793 65.848 43.4773 65.848 43.4753 65.848C43.4733 65.848 43.4713 65.848 43.4693 65.848C43.4673 65.848 43.4654 65.848 43.4634 65.848C43.4614 65.848 43.4594 65.848 43.4574 65.848C43.4554 65.848 43.4534 65.848 43.4515 65.848C43.4495 65.848 43.4475 65.848 43.4455 65.848C43.4435 65.848 43.4416 65.848 43.4396 65.848C43.4376 65.848 43.4356 65.848 43.4337 65.848C43.4317 65.848 43.4297 65.848 43.4278 65.848C43.4258 65.848 43.4238 65.848 43.4218 65.848C43.4199 65.848 43.4179 65.848 43.416 65.848C43.414 65.848 43.412 65.848 43.4101 65.848C43.4081 65.848 43.4062 65.848 43.4042 65.848C43.4022 65.848 43.4003 65.848 43.3983 65.848C43.3964 65.848 43.3944 65.848 43.3925 65.848C43.3905 65.848 43.3886 65.848 43.3866 65.848C43.3847 65.848 43.3828 65.848 43.3808 65.848C43.3789 65.848 43.3769 65.848 43.375 65.848C43.3731 65.848 43.3711 65.848 43.3692 65.848C43.3672 65.848 43.3653 65.848 43.3634 65.848C43.3614 65.848 43.3595 65.848 43.3576 65.848C43.3556 65.848 43.3537 65.848 43.3518 65.848C43.3499 65.848 43.3479 65.848 43.346 65.848C43.3441 65.848 43.3422 65.848 43.3403 65.848C43.3383 65.848 43.3364 65.848 43.3345 65.848C43.3326 65.848 43.3307 65.848 43.3288 65.848C43.3268 65.848 43.3249 65.848 43.323 65.848C43.3211 65.848 43.3192 65.848 43.3173 65.848C43.3154 65.848 43.3135 65.848 43.3116 65.848C43.3097 65.848 43.3078 65.848 43.3059 65.848C43.304 65.848 43.3021 65.848 43.3002 65.848C43.2983 65.848 43.2964 65.848 43.2945 65.848C43.2926 65.848 43.2907 65.848 43.2888 65.848C43.2869 65.848 43.285 65.848 43.2831 65.848C43.2813 65.848 43.2794 65.848 43.2775 65.848C43.2756 65.848 43.2737 65.848 43.2718 65.848C43.27 65.848 43.2681 65.848 43.2662 65.848C43.2643 65.848 43.2625 65.848 43.2606 65.848C43.2587 65.848 43.2568 65.848 43.255 65.848C43.2531 65.848 43.2512 65.848 43.2493 65.848C43.2475 65.848 43.2456 65.848 43.2438 65.848C43.2419 65.848 43.24 65.848 43.2382 65.848C43.2363 65.848 43.2344 65.848 43.2326 65.848C43.2307 65.848 43.2289 65.848 43.227 65.848C43.2252 65.848 43.2233 65.848 43.2215 65.848C43.2196 65.848 43.2178 65.848 43.2159 65.848C43.2141 65.848 43.2122 65.848 43.2104 65.848C43.2085 65.848 43.2067 65.848 43.2048 65.848C43.203 65.848 43.2012 65.848 43.1993 65.848C43.1975 65.848 43.1956 65.848 43.1938 65.848C43.192 65.848 43.1901 65.848 43.1883 65.848C43.1865 65.848 43.1846 65.848 43.1828 65.848C43.181 65.848 43.1792 65.848 43.1773 65.848C43.1755 65.848 43.1737 65.848 43.1719 65.848C43.17 65.848 43.1682 65.848 43.1664 65.848C43.1646 65.848 43.1628 65.848 43.1609 65.848C43.1591 65.848 43.1573 65.848 43.1555 65.848C43.1537 65.848 43.1519 65.848 43.1501 65.848C43.1483 65.848 43.1465 65.848 43.1446 65.848C43.1428 65.848 43.141 65.848 43.1392 65.848C43.1374 65.848 43.1356 65.848 43.1338 65.848C43.132 65.848 43.1302 65.848 43.1284 65.848C43.1266 65.848 43.1248 65.848 43.1231 65.848C43.1213 65.848 43.1195 65.848 43.1177 65.848C43.1159 65.848 43.1141 65.848 43.1123 65.848C43.1105 65.848 43.1087 65.848 43.107 65.848C43.1052 65.848 43.1034 65.848 43.1016 65.848C43.0998 65.848 43.0981 65.848 43.0963 65.848C43.0945 65.848 43.0927 65.848 43.091 65.848C43.0892 65.848 43.0874 65.848 43.0856 65.848C43.0839 65.848 43.0821 65.848 43.0803 65.848C43.0786 65.848 43.0768 65.848 43.075 65.848C43.0733 65.848 43.0715 65.848 43.0698 65.848C43.068 65.848 43.0662 65.848 43.0645 65.848C43.0627 65.848 43.061 65.848 43.0592 65.848C43.0575 65.848 43.0557 65.848 43.054 65.848C43.0522 65.848 43.0505 65.848 43.0487 65.848C43.047 65.848 43.0452 65.848 43.0435 65.848C43.0417 65.848 43.04 65.848 43.0382 65.848C43.0365 65.848 43.0348 65.848 43.033 65.848C43.0313 65.848 43.0295 65.848 43.0278 65.848C43.0261 65.848 43.0243 65.848 43.0226 65.848C43.0209 65.848 43.0192 65.848 43.0174 65.848C43.0157 65.848 43.014 65.848 43.0122 65.848C43.0105 65.848 43.0088 65.848 43.0071 65.848C43.0054 65.848 43.0036 65.848 43.0019 65.848C43.0002 65.848 42.9985 65.848 42.9968 65.848C42.9951 65.848 42.9933 65.848 42.9916 65.848C42.9899 65.848 42.9882 65.848 42.9865 65.848C42.9848 65.848 42.9831 65.848 42.9814 65.848C42.9797 65.848 42.978 65.848 42.9763 65.848C42.9746 65.848 42.9729 65.848 42.9712 65.848C42.9695 65.848 42.9678 65.848 42.9661 65.848C42.9644 65.848 42.9627 65.848 42.961 65.848C42.9593 65.848 42.9576 65.848 42.9559 65.848C42.9542 65.848 42.9526 65.848 42.9509 65.848C42.9492 65.848 42.9475 65.848 42.9458 65.848C42.9441 65.848 42.9425 65.848 42.9408 65.848C42.9391 65.848 42.9374 65.848 42.9357 65.848C42.9341 65.848 42.9324 65.848 42.9307 65.848C42.929 65.848 42.9274 65.848 42.9257 65.848C42.924 65.848 42.9224 65.848 42.9207 65.848C42.919 65.848 42.9174 65.848 42.9157 65.848C42.914 65.848 42.9124 65.848 42.9107 65.848C42.9091 65.848 42.9074 65.848 42.9058 65.848C42.9041 65.848 42.9024 65.848 42.9008 65.848C42.8991 65.848 42.8975 65.848 42.8958 65.848C42.8942 65.848 42.8925 65.848 42.8909 65.848C42.8892 65.848 42.8876 65.848 42.886 65.848C42.8843 65.848 42.8827 65.848 42.881 65.848C42.8794 65.848 42.8778 65.848 42.8761 65.848C42.8745 65.848 42.8728 65.848 42.8712 65.848C42.8696 65.848 42.8679 65.848 42.8663 65.848C42.8647 65.848 42.8631 65.848 42.8614 65.848C42.8598 65.848 42.8582 65.848 42.8566 65.848C42.8549 65.848 42.8533 65.848 42.8517 65.848C42.8501 65.848 42.8484 65.848 42.8468 65.848C42.8452 65.848 42.8436 65.848 42.842 65.848C42.8404 65.848 42.8388 65.848 42.8371 65.848C42.8355 65.848 42.8339 65.848 42.8323 65.848C42.8307 65.848 42.8291 65.848 42.8275 65.848C42.8259 65.848 42.8243 65.848 42.8227 65.848C42.8211 65.848 42.8195 65.848 42.8179 65.848C42.8163 65.848 42.8147 65.848 42.8131 65.848C42.8115 65.848 42.8099 65.848 42.8083 65.848C42.8067 65.848 42.8051 65.848 42.8036 65.848C42.802 65.848 42.8004 65.848 42.7988 65.848C42.7972 65.848 42.7956 65.848 42.7941 65.848C42.7925 65.848 42.7909 65.848 42.7893 65.848C42.7877 65.848 42.7862 65.848 42.7846 65.848C42.783 65.848 42.7814 65.848 42.7799 65.848C42.7783 65.848 42.7767 65.848 42.7752 65.848C42.7736 65.848 42.772 65.848 42.7705 65.848C42.7689 65.848 42.7673 65.848 42.7658 65.848C42.7642 65.848 42.7626 65.848 42.7611 65.848C42.7595 65.848 42.758 65.848 42.7564 65.848C42.7549 65.848 42.7533 65.848 42.7518 65.848C42.7502 65.848 42.7486 65.848 42.7471 65.848C42.7456 65.848 42.744 65.848 42.7425 65.848C42.7409 65.848 42.7394 65.848 42.7378 65.848C42.7363 65.848 42.7347 65.848 42.7332 65.848C42.7317 65.848 42.7301 65.848 42.7286 65.848C42.7271 65.848 42.7255 65.848 42.724 65.848C42.7225 65.848 42.7209 65.848 42.7194 65.848C42.7179 65.848 42.7163 65.848 42.7148 65.848C42.7133 65.848 42.7118 65.848 42.7102 65.848C42.7087 65.848 42.7072 65.848 42.7057 65.848C42.7042 65.848 42.7026 65.848 42.7011 65.848C42.6996 65.848 42.6981 65.848 42.6966 65.848C42.6951 65.848 42.6936 65.848 42.692 65.848C42.6905 65.848 42.689 65.848 42.6875 65.848C42.686 65.848 42.6845 65.848 42.683 65.848C42.6815 65.848 42.68 65.848 42.6785 65.848V67.848ZM46.3151 67.8466C47.9364 67.7613 49.5577 67.676 51.1791 67.5906L51.0739 65.5934C49.4526 65.6787 47.8313 65.764 46.2099 65.8494L46.3151 67.8466ZM51.1791 67.5906C52.8034 67.5051 54.0404 67.3743 54.825 67.1781L54.34 65.2379C53.7593 65.383 52.6922 65.5082 51.0739 65.5934L51.1791 67.5906ZM55.5825 66.208V58.912H53.5825V66.208H55.5825Z" fill="#F1F6F9"/>
</svg>
