<svg width="73" height="84" viewBox="0 0 73 84" fill="none" xmlns="http://www.w3.org/2000/svg">
<path d="M54.5825 58.912C54.5825 56.096 54.7105 53.536 54.9665 51.232L54.7105 50.848C52.3212 51.1893 49.7185 51.4453 46.9025 51.616C44.0865 51.7013 41.4838 51.7013 39.0945 51.616V34.976L72.5025 34.848V78.368C68.5772 80.16 64.0972 81.568 59.0625 82.592C54.1132 83.5307 47.7985 84 40.1185 84C29.8785 84 21.8572 82.6347 16.0545 79.904C10.2518 77.088 6.15583 72.608 3.7665 66.464C1.37717 60.2347 0.1825 51.9573 0.1825 41.632C0.1825 33.2693 1.12117 26.4 2.9985 21.024C4.96117 15.648 7.77717 11.5093 11.4465 8.60799C15.2012 5.62133 19.7665 3.57333 25.1425 2.464C30.5185 1.26933 36.6625 0.671997 43.5745 0.671997C47.6705 0.671997 51.7665 0.842664 55.8625 1.184C60.0438 1.52533 64.1825 2.16533 68.2785 3.104V20L67.8945 20.256C64.3105 19.4027 60.7265 18.8053 57.1425 18.464C53.6438 18.1227 50.1025 17.952 46.5185 17.952C41.3132 17.952 36.7478 18.5067 32.8225 19.616C28.9825 20.64 25.9958 22.816 23.8625 26.144C21.7292 29.472 20.6625 34.6347 20.6625 41.632C20.6625 48.544 21.2172 53.8347 22.3265 57.504C23.5212 61.088 25.6972 63.5627 28.8545 64.928C32.0972 66.208 36.7052 66.848 42.6785 66.848C43.4465 66.848 44.6412 66.848 46.2625 66.848C47.8838 66.7627 49.5052 66.6773 51.1265 66.592C52.7478 66.5067 53.8998 66.3787 54.5825 66.208V58.912Z" fill="#F1F6F9"/>
</svg>
