<svg width="70" height="61" viewBox="0 0 70 61" fill="none" xmlns="http://www.w3.org/2000/svg">
<rect x="20.5882" y="0.00101471" width="11.5294" height="60.9412" fill="white"/>
<rect x="20.5882" y="34.5893" width="9.88235" height="29.6471" transform="rotate(-90 20.5882 34.5893)" fill="white"/>
<path d="M9.53674e-07 44.4716H9.88235V56.001H9.53674e-07V44.4716Z" fill="white"/>
<path d="M20.5882 60.9422V49.4128H55.1765V55.818L51.0588 57.7396L43.6471 60.9422L20.5882 60.9422Z" fill="white"/>
<rect x="41.1765" y="4.94219" width="9.88235" height="49.4118" fill="white"/>
<rect x="60.1176" y="11.5304" width="9.88235" height="38.1294" fill="white"/>
<rect x="39.4989" y="9.76878" width="10.6124" height="28.6255" transform="rotate(-67 39.4989 9.76878)" fill="white"/>
<rect x="66.1456" y="40.6789" width="9.77301" height="27.6638" transform="rotate(67 66.1456 40.6789)" fill="white"/>
<path d="M20.5882 11.5304V0.00101495L43.6471 0.00101495L49.4118 2.4716L55.1765 4.94219V11.5304L20.5882 11.5304Z" fill="white"/>
<path d="M32.1176 49.4128V60.9422H10.7059L5.35294 58.4716L8.41478e-07 56.001V49.4128H32.1176Z" fill="white"/>
</svg>
